#!OML:ASF X:\für Bonn\!DataBase\2005_08_11_Bastian_Final\c3d\Bastian.ASF
:FULLY-SPECIFIED
:DEGREES
561
root -2.40607 1.18229 21.4935 -1002.09 -1.68719 -177.606
lowerback 12.1136 -1.39175 1.75307
upperback 8.23428 -2.50418 0.921282
thorax 1.81509 -1.61609 0.216488
lowerneck -19.4052 -4.48725 -5.60684
upperneck 4.6612 -5.35892 5.51852
head 4.7884 -2.461 2.10679
rclavicle -2.0276e-014 4.96962e-015
rhumerus -62.7067 56.1327 -108.407
rradius 24.8095
rwrist -13.632
rhand -14.0007 -3.00727
rfingers 7.12502
rthumb 12.1285 -32.6357
lclavicle -2.0276e-014 4.96962e-015
lhumerus -50.3992 -50.0047 105.425
lradius 23.4944
lwrist 31.767
lhand -10.7068 -1.18061
lfingers 7.12502
lthumb 15.3029 28.2332
rfemur 3.83888 7.25362 24.6648
rtibia 31.4677
rfoot -25.0032 -34.7605
rtoes 5.30092
lfemur 5.36444 1.30999 -14.8126
ltibia 22.3519
lfoot 3.47559 -1.33772
ltoes -4.0125
562
root -2.40736 1.18224 21.4924 -1002.03 -1.69048 -177.584
lowerback 12.0715 -1.3978 1.7601
upperback 8.2023 -2.50645 0.925682
thorax 1.80375 -1.61418 0.216663
lowerneck -19.5897 -4.4757 -5.61158
upperneck 4.58398 -5.33585 5.51736
head 4.79091 -2.45002 2.10737
rclavicle 2.06736e-014 -1.69961e-014
rhumerus -62.8921 56.1824 -108.569
rradius 24.872
rwrist -13.8631
rhand -13.998 -3.08502
rfingers 7.12502
rthumb 12.131 -32.7133
lclavicle 2.06736e-014 -1.69961e-014
lhumerus -50.3639 -49.9862 105.421
lradius 23.4206
lwrist 31.7508
lhand -10.7054 -1.1764
lfingers 7.12502
lthumb 15.3043 28.2373
rfemur 3.75267 7.2157 24.634
rtibia 31.5234
rfoot -24.9433 -34.7547
rtoes 5.14269
lfemur 5.39431 1.32282 -14.7291
ltibia 22.2633
lfoot 3.12269 -0.70782
ltoes -3.52149
563
root -2.40892 1.18189 21.4897 -1002.04 -1.68724 -177.545
lowerback 12.0705 -1.41327 1.76325
upperback 8.20155 -2.52742 0.941154
thorax 1.80397 -1.62527 0.233074
lowerneck -19.8358 -4.46723 -5.65904
upperneck 4.53987 -5.30834 5.55189
head 4.81513 -2.43434 2.12537
rclavicle -5.64548e-014 2.64384e-014
rhumerus -62.981 56.2592 -108.623
rradius 24.9135
rwrist -14.0405
rhand -13.9751 -3.08349
rfingers 7.12502
rthumb 12.1532 -32.7105
lclavicle -5.64548e-014 2.64384e-014
lhumerus -50.2644 -49.9245 105.368
lradius 23.3554
lwrist 31.6948
lhand -10.676 -1.20718
lfingers 7.12502
lthumb 15.3326 28.2044
rfemur 3.72814 7.18745 24.6246
rtibia 31.5819
rfoot -25.0265 -34.735
rtoes 5.27748
lfemur 5.47777 1.39466 -14.6163
ltibia 22.1684
lfoot 2.81944 -0.11538
ltoes -3.02602
564
root -2.4102 1.18215 21.4883 -1001.99 -1.69527 -177.522
lowerback 12.0222 -1.42313 1.76451
upperback 8.18073 -2.53681 0.936973
thorax 1.80747 -1.62747 0.227727
lowerneck -20.0707 -4.44527 -5.6162
upperneck 4.49435 -5.27781 5.51368
head 4.83227 -2.42043 2.10667
rclavicle 6.36111e-015 -1.88845e-015
rhumerus -63.1578 56.3062 -108.778
rradius 24.984
rwrist -14.2246
rhand -13.9902 -3.14543
rfingers 7.12502
rthumb 12.1385 -32.7733
lclavicle 6.36111e-015 -1.88845e-015
lhumerus -50.1581 -49.8483 105.279
lradius 23.2711
lwrist 31.616
lhand -10.6973 -1.22624
lfingers 7.12502
lthumb 15.312 28.1869
rfemur 3.65772 7.19142 24.5999
rtibia 31.6391
rfoot -25.0896 -34.7012
rtoes 5.39532
lfemur 5.51611 1.4121 -14.5367
ltibia 22.0626
lfoot 2.49718 0.530012
ltoes -2.68572
565
root -2.41141 1.18121 21.4851 -1001.98 -1.67096 -177.495
lowerback 12.0246 -1.43343 1.79672
upperback 8.16083 -2.54515 0.94792
thorax 1.78448 -1.62976 0.222614
lowerneck -20.2976 -4.44474 -5.61708
upperneck 4.46364 -5.2695 5.51235
head 4.85628 -2.4157 2.10425
rclavicle 1.66979e-014 -2.95195e-014
rhumerus -63.181 56.3024 -108.782
rradius 24.991
rwrist -14.3152
rhand -13.9395 -3.14918
rfingers 7.12502
rthumb 12.1875 -32.7741
lclavicle 1.66979e-014 -2.95195e-014
lhumerus -50.0963 -49.8004 105.234
lradius 23.2187
lwrist 31.5711
lhand -10.6549 -1.23952
lfingers 7.12502
lthumb 15.353 28.1705
rfemur 3.61291 7.16747 24.6138
rtibia 31.693
rfoot -25.0738 -34.6967
rtoes 5.29365
lfemur 5.58233 1.3939 -14.4326
ltibia 21.9643
lfoot 2.1598 1.14221
ltoes -2.59969
566
root -2.41238 1.18175 21.4844 -1001.94 -1.69721 -177.47
lowerback 11.9851 -1.44606 1.76585
upperback 8.14438 -2.56213 0.950461
thorax 1.78926 -1.63774 0.243176
lowerneck -20.5495 -4.42213 -5.63031
upperneck 4.46025 -5.22765 5.51264
head 4.89118 -2.39383 2.10742
rclavicle -7.55382e-015 1.20265e-014
rhumerus -63.4306 56.4288 -108.996
rradius 25.0757
rwrist -14.5368
rhand -13.9415 -3.15907
rfingers 7.12502
rthumb 12.1855 -32.7841
lclavicle -7.55382e-015 1.20265e-014
lhumerus -49.9962 -49.7239 105.173
lradius 23.1335
lwrist 31.5252
lhand -10.6465 -1.25917
lfingers 7.12502
lthumb 15.361 28.1502
rfemur 3.5508 7.13879 24.5655
rtibia 31.7505
rfoot -25.0775 -34.6848
rtoes 5.28277
lfemur 5.63275 1.39802 -14.3757
ltibia 21.8589
lfoot 1.86357 1.67091
ltoes -2.03631
567
root -2.4139 1.18078 21.4828 -1001.92 -1.69529 -177.429
lowerback 11.9745 -1.46274 1.77907
upperback 8.12567 -2.58031 0.947648
thorax 1.77442 -1.64496 0.234884
lowerneck -20.7974 -4.41886 -5.64614
upperneck 4.45027 -5.21457 5.53783
head 4.92573 -2.3849 2.11596
rclavicle -1.19271e-014 2.88238e-014
rhumerus -63.4093 56.4024 -108.968
rradius 25.0789
rwrist -14.5999
rhand -13.9017 -3.2026
rfingers 7.12502
rthumb 12.2238 -32.8254
lclavicle -1.19271e-014 2.88238e-014
lhumerus -49.9102 -49.6392 105.073
lradius 23.0975
lwrist 31.4
lhand -10.6181 -1.26152
lfingers 7.12502
lthumb 15.3884 28.1458
rfemur 3.49328 7.10923 24.5496
rtibia 31.806
rfoot -25.0659 -34.6826
rtoes 5.08638
lfemur 5.67376 1.39466 -14.3023
ltibia 21.7592
lfoot 1.62047 2.11928
ltoes -1.6759
568
root -2.41524 1.18138 21.4801 -1001.91 -1.69712 -177.411
lowerback 11.9503 -1.46276 1.77138
upperback 8.12403 -2.58118 0.966064
thorax 1.78683 -1.64578 0.257417
lowerneck -21.0391 -4.41162 -5.68282
upperneck 4.42667 -5.18815 5.54546
head 4.9541 -2.37109 2.12391
rclavicle -1.86858e-014 3.20043e-014
rhumerus -63.4825 56.4279 -108.995
rradius 25.1116
rwrist -14.7375
rhand -13.9344 -3.20549
rfingers 7.12502
rthumb 12.1923 -32.8302
lclavicle -1.86858e-014 3.20043e-014
lhumerus -49.7467 -49.5401 104.981
lradius 22.995
lwrist 31.2936
lhand -10.5967 -1.28646
lfingers 7.12502
lthumb 15.409 28.1193
rfemur 3.45733 7.08661 24.5325
rtibia 31.8578
rfoot -25.0847 -34.6545
rtoes 5.21323
lfemur 5.7381 1.42931 -14.2272
ltibia 21.6632
lfoot 1.38425 2.48981
ltoes -1.55952
